# xmcd
#
# Track frame offsets:
#	150
#	22217
#	35581
#	55843
#	75737
#	98256
#	111568
#	134826
#	156141
#	171481
#	192894
#
# Disc length: 2780 seconds
#
# Revision: 0
# Processed by: cddbd v1.5.2PL0 Copyright (c) Steve Scherf et al.
# Submitted via: EasyCDDAExtractor 16.1.0.1
#
DISCID=980ada0b
DTITLE=Chakra de Tilcara - Vientos del Pukara
DYEAR=1900
DGENRE=
TTITLE0=A Germán Choquevilca
TTITLE1=Florcita de Carbón
TTITLE2=Misachico de Cangrejillos
TTITLE3=Me Gusta Jujuy Cuando Llueve
TTITLE4=El Cóndor Pasa
TTITLE5=Viva Jujuy
TTITLE6=El Promesante
TTITLE7=La Navidad de Luis
TTITLE8=El Ayer en Sueños
TTITLE9=Tondada para Remedios
TTITLE10=Viernes y te Vás
EXTD=
EXTT0=
EXTT1=
EXTT2=
EXTT3=
EXTT4=
EXTT5=
EXTT6=
EXTT7=
EXTT8=
EXTT9=
EXTT10=
PLAYORDER=
